<svg width="22" height="22" viewBox="0 0 22 22" fill="none" xmlns="http://www.w3.org/2000/svg">
<g id="eva:facebook-fill">
<path id="Vector" d="M15.0848 2.79536C15.0848 2.67769 15.038 2.56484 14.9548 2.48163C14.8716 2.39843 14.7588 2.35168 14.6411 2.35168H12.4227C11.3057 2.29604 10.212 2.68478 9.38067 3.43298C8.54934 4.18118 8.04793 5.22801 7.98601 6.34474V8.74057H5.76765C5.64998 8.74057 5.53713 8.78732 5.45392 8.87052C5.37072 8.95373 5.32397 9.06658 5.32397 9.18424V11.4913C5.32397 11.609 5.37072 11.7219 5.45392 11.8051C5.53713 11.8883 5.64998 11.935 5.76765 11.935H7.98601V17.8802C7.98601 17.9979 8.03275 18.1108 8.11596 18.194C8.19916 18.2772 8.31201 18.3239 8.42968 18.3239H11.0917C11.2094 18.3239 11.3222 18.2772 11.4054 18.194C11.4886 18.1108 11.5354 17.9979 11.5354 17.8802V11.935H13.8602C13.9589 11.9364 14.0552 11.9049 14.134 11.8455C14.2127 11.786 14.2694 11.702 14.295 11.6067L14.9339 9.2996C14.9516 9.23404 14.954 9.16531 14.9409 9.0987C14.9278 9.03208 14.8996 8.96935 14.8584 8.91535C14.8173 8.86135 14.7643 8.81751 14.7035 8.78721C14.6428 8.75691 14.5759 8.74095 14.508 8.74057H11.5354V6.34474C11.5575 6.1251 11.6606 5.92157 11.8247 5.7739C11.9888 5.62623 12.202 5.54502 12.4227 5.54613H14.6411C14.7588 5.54613 14.8716 5.49938 14.9548 5.41618C15.038 5.33297 15.0848 5.22012 15.0848 5.10245V2.79536Z" fill="#FD8825"/>
</g>
</svg>
