<svg width="23" height="22" viewBox="0 0 23 22" fill="none" xmlns="http://www.w3.org/2000/svg">
<g id="carbon:logo-instagram">
<path id="Vector" d="M15.8118 7.03288C16.3411 7.03288 16.7702 6.60382 16.7702 6.07454C16.7702 5.54527 16.3411 5.11621 15.8118 5.11621C15.2826 5.11621 14.8535 5.54527 14.8535 6.07454C14.8535 6.60382 15.2826 7.03288 15.8118 7.03288Z" fill="#FD8825"/>
<path id="Vector_2" d="M11.5486 6.23694C10.7375 6.23694 9.94469 6.47745 9.2703 6.92806C8.59592 7.37867 8.0703 8.01914 7.75992 8.76847C7.44953 9.51781 7.36832 10.3424 7.52655 11.1378C7.68479 11.9333 8.07536 12.664 8.64887 13.2376C9.22239 13.8111 9.95309 14.2016 10.7486 14.3599C11.5441 14.5181 12.3686 14.4369 13.118 14.1265C13.8673 13.8161 14.5078 13.2905 14.9584 12.6161C15.409 11.9417 15.6495 11.1489 15.6495 10.3378C15.6495 9.25019 15.2174 8.20712 14.4484 7.43806C13.6793 6.66899 12.6362 6.23694 11.5486 6.23694ZM11.5486 12.9998C11.0221 12.9998 10.5074 12.8437 10.0697 12.5512C9.63191 12.2587 9.29071 11.8429 9.08922 11.3565C8.88774 10.8701 8.83502 10.3349 8.93774 9.81847C9.04045 9.30209 9.29399 8.82776 9.66628 8.45546C10.0386 8.08317 10.5129 7.82964 11.0293 7.72692C11.5457 7.6242 12.0809 7.67692 12.5673 7.87841C13.0538 8.07989 13.4695 8.42109 13.762 8.85886C14.0545 9.29663 14.2107 9.81131 14.2107 10.3378C14.2107 11.0438 13.9302 11.7209 13.431 12.2202C12.9317 12.7194 12.2546 12.9998 11.5486 12.9998Z" fill="#FD8825"/>
<path id="Vector_3" d="M11.5479 3.79052C13.6802 3.79052 13.9331 3.7985 14.7749 3.8371C15.2813 3.84311 15.7828 3.93608 16.2577 4.11196C16.6022 4.24485 16.9151 4.4484 17.1762 4.7095C17.4373 4.97061 17.6408 5.28348 17.7737 5.62799C17.9496 6.10285 18.0426 6.60439 18.0486 7.11074C18.0872 7.95261 18.0952 8.2055 18.0952 10.3385C18.0952 12.4714 18.0872 12.723 18.0486 13.5649C18.0426 14.0712 17.9496 14.5727 17.7737 15.0476C17.6408 15.3921 17.4373 15.705 17.1762 15.9661C16.9151 16.2272 16.6022 16.4307 16.2577 16.5636C15.7828 16.7395 15.2813 16.8325 14.7749 16.8385C13.9331 16.8771 13.6802 16.8851 11.5479 16.8851C9.41559 16.8851 9.16269 16.8771 8.32082 16.8385C7.81448 16.8325 7.31293 16.7395 6.83807 16.5636C6.49356 16.4307 6.18069 16.2272 5.91959 15.9661C5.65848 15.705 5.45494 15.3921 5.32204 15.0476C5.14617 14.5727 5.0532 14.0712 5.04718 13.5649C5.00858 12.723 5.0006 12.4701 5.0006 10.3378C5.0006 8.2055 5.00858 7.95261 5.04718 7.11074C5.0532 6.60439 5.14617 6.10285 5.32204 5.62799C5.45494 5.28348 5.65848 4.97061 5.91959 4.7095C6.18069 4.4484 6.49356 4.24485 6.83807 4.11196C7.31293 3.93608 7.81448 3.84311 8.32082 3.8371C9.16269 3.7985 9.41559 3.79052 11.5479 3.79052ZM11.5479 2.35168C9.37898 2.35168 9.10679 2.361 8.25494 2.3996C7.59261 2.41298 6.93734 2.53854 6.31698 2.77096C5.78638 2.97613 5.30451 3.2899 4.90225 3.69217C4.49999 4.09443 4.18621 4.5763 3.98104 5.10689C3.74855 5.72746 3.62298 6.38297 3.60968 7.04552C3.57108 7.89737 3.56177 8.16824 3.56177 10.3378C3.56177 12.5074 3.57108 12.7789 3.60968 13.6307C3.62306 14.2931 3.74862 14.9483 3.98104 15.5687C4.18621 16.0993 4.49999 16.5812 4.90225 16.9834C5.30451 17.3857 5.78638 17.6995 6.31698 17.9046C6.93755 18.1371 7.59305 18.2627 8.2556 18.276C9.10746 18.3146 9.37898 18.3239 11.5479 18.3239C13.7168 18.3239 13.989 18.3146 14.8408 18.276C15.5034 18.2627 16.1589 18.1371 16.7794 17.9046C17.31 17.6995 17.7919 17.3857 18.1942 16.9834C18.5964 16.5812 18.9102 16.0993 19.1154 15.5687C19.3476 14.9481 19.473 14.2926 19.4861 13.6301C19.5247 12.7782 19.534 12.5074 19.534 10.3378C19.534 8.16824 19.5247 7.89671 19.4861 7.04486C19.4727 6.38252 19.3471 5.72725 19.1147 5.10689C18.9095 4.5763 18.5958 4.09443 18.1935 3.69217C17.7912 3.2899 17.3094 2.97613 16.7788 2.77096C16.1582 2.53869 15.5027 2.41335 14.8402 2.40027C13.9883 2.36034 13.7174 2.35168 11.5479 2.35168Z" fill="#FD8825"/>
</g>
</svg>
