<svg width="24" height="24" viewBox="0 0 24 24" fill="none" xmlns="http://www.w3.org/2000/svg">
<g id="ph:map-pin-bold">
<path id="Vector" d="M12.0094 5.625C11.1936 5.625 10.396 5.86693 9.71767 6.32019C9.03932 6.77345 8.51061 7.41769 8.1984 8.17143C7.88619 8.92518 7.8045 9.75458 7.96366 10.5547C8.12282 11.3549 8.51569 12.0899 9.09258 12.6668C9.66948 13.2437 10.4045 13.6366 11.2047 13.7957C12.0048 13.9549 12.8342 13.8732 13.588 13.561C14.3417 13.2488 14.986 12.7201 15.4392 12.0417C15.8925 11.3634 16.1344 10.5658 16.1344 9.75C16.1319 8.65674 15.6965 7.60897 14.9235 6.83592C14.1504 6.06287 13.1027 5.62748 12.0094 5.625ZM12.0094 11.625C11.6386 11.625 11.276 11.515 10.9677 11.309C10.6594 11.103 10.419 10.8101 10.2771 10.4675C10.1352 10.1249 10.0981 9.74792 10.1704 9.38421C10.2428 9.02049 10.4214 8.6864 10.6836 8.42418C10.9458 8.16195 11.2799 7.98338 11.6436 7.91103C12.0073 7.83868 12.3843 7.87581 12.7269 8.01773C13.0695 8.15964 13.3624 8.39996 13.5684 8.70831C13.7744 9.01665 13.8844 9.37916 13.8844 9.75C13.8819 10.2465 13.6836 10.722 13.3325 11.0731C12.9814 11.4242 12.5059 11.6225 12.0094 11.625ZM12.0094 1.125C9.72267 1.12748 7.53031 2.03698 5.91334 3.65394C4.29638 5.27091 3.38688 7.46327 3.3844 9.75C3.3844 17.0063 11.0438 22.4438 11.3625 22.6688C11.5514 22.8032 11.7775 22.8754 12.0094 22.8754C12.2413 22.8754 12.4674 22.8032 12.6563 22.6688C14.1056 21.6029 15.4324 20.3798 16.6125 19.0219C19.2469 15.9938 20.6344 12.7875 20.6344 9.75C20.6319 7.46327 19.7224 5.27091 18.1055 3.65394C16.4885 2.03698 14.2961 1.12748 12.0094 1.125ZM14.9438 17.5031C14.0505 18.5311 13.0686 19.4785 12.0094 20.3344C10.9502 19.4785 9.96828 18.5311 9.07502 17.5031C7.5094 15.6938 5.6344 12.8719 5.6344 9.75C5.6344 8.05925 6.30605 6.43774 7.50159 5.24219C8.69714 4.04665 10.3186 3.375 12.0094 3.375C13.7002 3.375 15.3217 4.04665 16.5172 5.24219C17.7127 6.43774 18.3844 8.05925 18.3844 9.75C18.3844 12.8719 16.5188 15.6938 14.9438 17.5031Z" fill="#FD8825"/>
</g>
</svg>
